<svg width="32" height="32" viewBox="0 0 32 32" fill="none" xmlns="http://www.w3.org/2000/svg">
  <rect width="32" height="32" rx="6" fill="#0F172A"/>
  <path
    d="M21.75 10.5C21.75 8.01472 19.4837 6 16.75 6H12.5C10.0147 6 8 8.01472 8 10.5C8 12.9853 10.0147 15 12.5 15H17C18.1046 15 19 15.8954 19 17C19 18.1046 18.1046 19 17 19H11.25C10.5596 19 10 19.5596 10 20.25C10 20.9404 10.5596 21.5 11.25 21.5H17.25C19.5972 21.5 21.5 23.4028 21.5 25.75V26C21.5 27.1046 22.3954 28 23.5 28C24.6046 28 25.5 27.1046 25.5 26V25.75C25.5 21.7647 22.2353 18.5 18.25 18.5H13.75C12.7835 18.5 12 17.7165 12 16.75C12 15.7835 12.7835 15 13.75 15H17.25C19.7353 15 21.75 12.9853 21.75 10.5Z"
    fill="#3B82F6"
  />
  <circle cx="23.5" cy="7.5" r="2.5" fill="#FACC15"/>
</svg>
